<?xml version="1.0" encoding="utf-8"?>
<svg viewBox="0 0 1536 512" xmlns="http://www.w3.org/2000/svg" xmlns:bx="https://boxy-svg.com">
  <g class="" style="" transform="matrix(0.834193, 0, 0, 0.834193, 543.218201, 43.8839)">
    <path d="M379.42 24.066l-28.059 87.407 28.268 5.941-3.098 15.352-52.25 47.843-51.5-43.125-23.404-4.093c8.217-14.33 14.683-32.77 16.404-49.594 10.02-2.28 34.92-5.675 46.094-10.059-4.997-10.285-30.197-16.906-48.7-16.316-1.733-20.713-8.88-29.054-34.155-27.902-25.276 1.151-32.972 6.601-30.16 36.423-18.866 4.127-38.097 12.616-39.74 27.084 7.87-.307 32.96-2.896 40.724-3.011.66 14.1 4.4 27.847 9.97 36.375l-35.158-6.125L106 195.922l77.344 55.875 1.625 16.844-34.19 215.75h38.375l38.315-169.25 47.873 169.25h37.47l-3.564-16.407 17.094 16.407 63.062-322.532c5.01-4.54 9.265-8.481 12.094-11.312.177-10.537-2.537-18.942-5.094-24.5l.971-4.902 27.238 5.724 8.444-93.117-22.846 68.781-10.848-2.256 6.635-72.658-21.568 69.55-11.217-2.333 6.207-70.77zm26.578 3.553l.002-.01h-.002v.01zM182.844 153.39l.344 64.095-31.5-23.75 31.156-40.345zm88.031 21.252l50.875 45.937s22.993-19.456 44.875-38.531l-57.438 285.562-42.812-197.529 4.5-95.44z" fill-opacity="1" style="fill: rgb(255, 255, 255);"/>
  </g>
  <g class="" transform="matrix(0.838611, 0, 0, 0.838534, 1065.358032, 37.166897)" style="" bx:origin="0.499763 0.5">
    <path d="M256 32l-96 48h23v71h-32v50h30.945L155.36 440.244l-.653.477.522.72-4.175 37.566-.994 8.945 17.89 1.99.995-8.946L171.61 457h168.78l2.665 23.994.994 8.945 17.89-1.99-.995-8.944-4.174-37.567.523-.72-.654-.476L330.054 201H361v-50h-32V80h23l-96-48zm-48 64h32v48h-32V96zm64 0h32v48h-32V96zm-103 73h14v14h-14v-14zm32 0h14v14h-14v-14zm32 0h14v14h-14v-14zm32 0h14v14h-14v-14zm32 0h14v14h-14v-14zm32 0h14v14h-14v-14zm-113.328 32h80.656L256 236.848 215.672 201zm-16.65 9.283L240.33 247h-45.385l4.08-36.717zm113.955 0l4.08 36.717h-45.385l41.305-36.717zM192.945 265h31.383l-34.822 30.953 3.44-30.953zm58.477 0h9.156l51.75 46H199.672l51.75-46zm36.25 0h31.383l3.44 30.953L287.67 265zm-83.994 64h104.644L256 367.053 203.678 329zm-18.8 8.586L236.323 375h-55.6l4.157-37.414zm142.243 0L331.278 375h-55.6l51.444-37.414zM178.724 393h41.6l-45.26 32.914 3.66-32.914zm72.205 0h10.144l63.25 46H187.678l63.25-46zm40.75 0h41.6l3.658 32.914L291.678 393z" fill="#fff" fill-opacity="1"/>
  </g>
</svg>